<?xml version="1.0" encoding="utf-8"?>
<!-- Generator: Adobe Illustrator 22.0.0, SVG Export Plug-In . SVG Version: 6.00 Build 0)  -->
<svg version="1.1" id="Livello_1" xmlns="http://www.w3.org/2000/svg" xmlns:xlink="http://www.w3.org/1999/xlink" x="0px" y="0px"
	 viewBox="0 0 68.9 68.3" style="enable-background:new 0 0 68.9 68.3;" xml:space="preserve">
<style type="text/css">
	.st0{fill:#FFFFFF;}
</style>
<g>
	<path class="st0" d="M38.1,34.1l30-29.5c1-1,1.1-2.7,0.2-3.7c-0.9-1.1-2.4-1.2-3.4-0.2L34.4,30.6L4.1,0.7c-1-1-2.5-0.9-3.4,0.2
		C-0.3,2-0.2,3.6,0.8,4.6l30,29.5l-30,29.5c-1,1-1.1,2.7-0.2,3.7c0.9,1.1,2.4,1.2,3.4,0.2l30.4-29.9l30.4,29.9
		c0.5,0.5,1.1,0.7,1.6,0.7c0.7,0,1.3-0.3,1.8-0.9c0.9-1.1,0.8-2.8-0.2-3.7L38.1,34.1z"/>
</g>
</svg>
